<svg xmlns="http://www.w3.org/2000/svg" xmlns:xlink="http://www.w3.org/1999/xlink" width="195.27" height="34.848" viewBox="0 0 195.27 34.848">
  <defs>
    <clipPath id="clip-path">
      <rect id="Rectangle_1346" data-name="Rectangle 1346" width="195.27" height="34.848" transform="translate(0 0)" fill="none"/>
    </clipPath>
  </defs>
  <g id="Group_2797" data-name="Group 2797" transform="translate(0 0)">
    <g id="Group_2797-2" data-name="Group 2797" clip-path="url(#clip-path)">
      <path id="Path_2170" data-name="Path 2170" d="M0,10.389A11.987,11.987,0,0,1,2.153,8.031a5.88,5.88,0,0,1,2.911-.814c3.593-.092,7.19-.057,10.784-.021a15.724,15.724,0,0,1,2.749.31c6.586,1.247,7.63,9.022,4.108,12.529a7.009,7.009,0,0,0-.473.6c2.406,1.575,3.074,3.892,2.994,6.579-.091,3.07-1.452,5.341-4.315,6.456a14.774,14.774,0,0,1-4.9.994c-5.334.13-10.673.064-16.01.073V10.389M8.507,28.63c1.957,0,3.739.09,5.508-.029a2.08,2.08,0,0,0,2.116-2.211,2.116,2.116,0,0,0-2.045-2.3c-1.812-.153-3.646-.038-5.579-.038ZM8.494,17.837c1.825,0,3.447.109,5.047-.035a2.225,2.225,0,0,0,2.071-2.148,2.111,2.111,0,0,0-1.777-2.215,45.291,45.291,0,0,0-5.341-.057Z" fill="#ff4053"/>
      <path id="Path_2171" data-name="Path 2171" d="M120.065,0c.937,1.69,1.823,3.411,2.828,5.06a3.646,3.646,0,0,1,.4,3.343c-1.177,3.527-2.195,7.105-3.567,10.694L115.943,6.766,119.738,0Z" fill="#ff4053"/>
      <path id="Path_2172" data-name="Path 2172" d="M68.588,7.274c.619-.037,1.1-.089,1.575-.09,4.738-.006,9.477-.053,14.214.029a12.1,12.1,0,0,1,3.981.706,7.464,7.464,0,0,1,3.015,11.9c-.207.244-.431.475-.713.784L92,21.746c-1.661,4.239-3.325,8.489-4.981,12.715a13.547,13.547,0,0,1-1.639.224c-4.138.019-8.278.088-12.414-.005-2.746-.062-4.462-2.122-4.472-5.161-.021-6.7-.01-13.4,0-20.1,0-.687.061-1.373.1-2.14m8.424,21.357c2,0,3.794.076,5.575-.027a2.223,2.223,0,0,0,2.1-2.116,2.009,2.009,0,0,0-1.842-2.277c-1.907-.179-3.844-.047-5.833-.047Zm0-10.841a45.75,45.75,0,0,0,5.242-.053,2.049,2.049,0,0,0,1.788-2.2,2.082,2.082,0,0,0-1.718-2.1,14.01,14.01,0,0,0-5.312-.054Z" fill="#ff4053"/>
      <path id="Path_2173" data-name="Path 2173" d="M51.093,16.348c-2.621,1.468-2.819,7.633-1,9.467a7.539,7.539,0,0,0,3.073,1.652,9.327,9.327,0,0,0,5.637-.731V24.645H54.157V19.3H65.223a3.144,3.144,0,0,1,.211.822c.018,3.3.035,6.595.005,9.892a3.523,3.523,0,0,1-2.505,3.619c-6.026,1.9-11.941,1.713-17.451-1.59a10.766,10.766,0,0,1-4.863-7.4c-1.761-8.4,2.4-14.937,10.79-16.958a57.862,57.862,0,0,1,12.8-.314v5.791c-1.391,1.083-2.634,2.075-3.9,3.033a5.456,5.456,0,0,1-4.294,1.122c-1.656-.274-3.3-.645-4.919-.969" fill="#ff4053"/>
      <path id="Path_2174" data-name="Path 2174" d="M112.929,7.191c.742,2.359,1.452,4.562,2.129,6.775.964,3.151,1.949,6.3,2.823,9.472a5.014,5.014,0,0,1,0,2.482c-.614,2.35-1.367,4.665-2.08,6.989-.172.561-.4,1.1-.624,1.713h-3.405l-1.806-5.072h-8.4L99.77,34.629H90.2c.751-2,1.442-3.9,2.179-5.777q3.429-8.755,6.9-17.5A12.369,12.369,0,0,1,100.34,9.18a4.079,4.079,0,0,1,3.4-1.968c2.992-.069,5.987-.021,9.192-.021m-4.815,15.488c-.776-2.475-1.47-4.689-2.163-6.9l-.417.006c-.7,2.248-1.408,4.5-2.16,6.9Z" fill="#ff4053"/>
      <path id="Path_2175" data-name="Path 2175" d="M168.746,28.109v6.455H145.534a7.448,7.448,0,0,1,1.024-5.863c3.148-4.471,6.119-9.064,9.157-13.611a6.36,6.36,0,0,0,.336-.723c-2.569,0-4.974.007-7.379,0-3.229-.012-4.626-1.092-5.448-4.2-.451-1.7-.9-3.406-1.379-5.239H150c.113.694.222,1.361.363,2.223h16.593c.1,2.762.435,5.226-1.192,7.633-2.729,4.035-5.178,8.256-7.739,12.4a10.008,10.008,0,0,0-.423.922Z" fill="#ff4053"/>
      <path id="Path_2176" data-name="Path 2176" d="M126.753,7.188c3.2,0,6.143-.063,9.08.023a4.235,4.235,0,0,1,3.983,2.662c2.007,4.9,3.893,9.841,5.889,14.926-2.171,2.821-4.342,5.718-3.2,9.765h-2.536c-.563-1.6-1.15-3.266-1.765-5.015H129.79l-1.769,5.067h-9.637c2.805-9.194,5.568-18.248,8.369-27.428m9.559,15.469c-.772-2.511-1.474-4.793-2.175-7.076l-.351.049-2.134,7.027Z" fill="#ff4053"/>
      <path id="Path_2177" data-name="Path 2177" d="M180.251,11.988c0,6.27.056,12.266-.026,18.261a4.548,4.548,0,0,1-4.688,4.445c-1.351.03-2.7.005-4.19.005V7.223l8.9,4.765" fill="#ff4053"/>
      <path id="Path_2178" data-name="Path 2178" d="M28.173,11.994l9.015-4.776V34.635a39.858,39.858,0,0,1-5.1-.042c-2.338-.309-3.851-2.291-3.89-4.893-.057-3.73-.018-7.462-.02-11.193,0-2.106,0-4.213,0-6.513" fill="#ff4053"/>
      <path id="Path_2179" data-name="Path 2179" d="M189.077,34.711a5.974,5.974,0,1,1,6.193-5.961,5.928,5.928,0,0,1-6.193,5.961m.178-10.47a4.282,4.282,0,0,0-4.519,4.446,4.524,4.524,0,1,0,9.045.154,4.3,4.3,0,0,0-4.526-4.6" fill="#ff4053"/>
      <path id="Path_2180" data-name="Path 2180" d="M189.258,31.777A3.16,3.16,0,0,1,186.1,28.62h1.071a2.086,2.086,0,0,0,4.172,0h1.071a3.16,3.16,0,0,1-3.157,3.157" fill="#ff4053"/>
    </g>
  </g>
</svg>
