<svg xmlns="http://www.w3.org/2000/svg" xmlns:xlink="http://www.w3.org/1999/xlink" width="195.731" height="90.398" viewBox="0 0 195.731 90.398">
  <defs>
    <clipPath id="clip-path">
      <rect id="Rectangle_1345" data-name="Rectangle 1345" width="195.731" height="90.398" transform="translate(0 0)" fill="none"/>
    </clipPath>
  </defs>
  <g id="Group_2796" data-name="Group 2796" transform="translate(0 0)">
    <g id="Group_2796-2" data-name="Group 2796" clip-path="url(#clip-path)">
      <path id="Path_2145" data-name="Path 2145" d="M35.255,0c3.229,4.539,6.346,9.163,9.721,13.592A59.932,59.932,0,0,0,56.331,24.546c3.758,2.9,7.424,5.855,10.2,9.807,7.06,10.055,3.2,22.863-8.258,27.348-5.506,2.154-10.831,1.536-16-.9-1.751-.825-2.94-.969-4.4.566a5.291,5.291,0,0,1-6.946.41c-.56-.386-1.067-.849-1.445-1.152-2.578.73-4.957,1.555-7.4,2.065-5.536,1.154-10.409-.585-14.888-3.743a17.868,17.868,0,0,1-6.1-8.373C-1.422,44.385.768,39.114,4.048,34.051c2.622-4.047,6.594-6.746,10.3-9.685,6.69-5.314,12.643-11.279,17.015-18.687C32.482,3.773,33.648,1.892,34.795,0ZM5.85,53.223a9.456,9.456,0,0,0,.941,1.591c5.151,5.394,12.337,6.463,18.989,3.97,1.4-.523,1.658-1.492,1.615-2.883a17.278,17.278,0,0,1,.4-5.163c1.328-4.7,5.537-6.449,9.82-4.214a2,2,0,0,0,2.639-.354c3-2.709,4.192-6.308,5.068-10.047,1.141-4.871.973-9.834.942-14.792a4.282,4.282,0,0,0-2.281-3.915,6.671,6.671,0,0,0-.625.776,21.617,21.617,0,0,1-8.548,8.057c-1.5.838-1.755,2.055-1.844,3.608a21.488,21.488,0,0,1-8.757,16.4c-4.763,3.661-10.323,5.535-16.215,6.5-.637.1-1.263.274-2.144.468M30.058,28.371a27.44,27.44,0,0,0-2.73.465,31.317,31.317,0,0,1-12.052.817c-3.262-.366-5.156,1.247-6.954,3.315a30.944,30.944,0,0,0-3.152,4.47,14.892,14.892,0,0,0-1.937,10.32c.358,2.157.789,2.476,2.9,2.188a38.186,38.186,0,0,0,13.076-3.938c6.914-3.7,10.517-9.4,10.851-17.637m19.936-5.108c-.484,4.493-.734,8.6-1.409,12.638-.871,5.2-2.734,9.982-7.129,13.406a2.8,2.8,0,0,0-.569,1.981c0,.907.713,1.342,1.575,1.293,1.139-.065,2.278-.207,3.406-.385,8.553-1.353,14.461-6.1,17.959-13.941a2.5,2.5,0,0,0-.374-3.128c-.641-.645-1.1-1.477-1.784-2.071-2.922-2.557-5.888-5.064-8.852-7.572-.857-.725-1.764-1.391-2.823-2.221M35.214,5.647c-2.992,3.982-5.547,7.879-8.612,11.325s-6.656,6.464-10.015,9.668a34.514,34.514,0,0,0,6.028-.106A27.281,27.281,0,0,0,32.948,23.77a19.9,19.9,0,0,0,7.758-7.258,2.741,2.741,0,0,0-.162-3.542c-1.366-1.828-2.62-3.738-3.94-5.6-.385-.543-.835-1.039-1.39-1.723M66.52,41.016c-.307.086-.514.08-.583.174-.357.485-.694.987-1.011,1.5-3.465,5.584-8.191,9.629-14.565,11.479-2.324.674-4.8.827-7.179,1.319a7.911,7.911,0,0,0-1.9.969c.437.542.762,1.311,1.329,1.589a18.811,18.811,0,0,0,10.88,2.031C60.983,59.1,66.65,54.057,67.4,46.022a8.8,8.8,0,0,0-.885-5.006M39.067,54.448a7.629,7.629,0,0,0-1.582-5.115c-2.192-2.666-5.411-2.331-7.083.7a8.866,8.866,0,0,0,.028,8.522,4.083,4.083,0,0,0,6.828.887,6.693,6.693,0,0,0,1.809-4.992" fill="#474654"/>
      <path id="Path_2146" data-name="Path 2146" d="M50.2,90.156a.939.939,0,0,1-.293-.041,44.785,44.785,0,0,1-6.194-1.991,22.344,22.344,0,0,1-7.927-6.083c-1.161-1.388-1.549-1.356-2.963-.118-2.174,1.9-4.2,4.055-6.623,5.572-4.435,2.778-9.29,3.92-14.409,1.823A13.1,13.1,0,0,1,4.507,81.8a2.513,2.513,0,0,1-.02-1.308.956.956,0,0,1,.932-.8,2.2,2.2,0,0,1,1.086.175,6.642,6.642,0,0,0,6.979-.3c2.3-1.352,4.428-2.988,6.719-4.353a57.117,57.117,0,0,1,5.692-2.9,5.625,5.625,0,0,1,6.206.878c1.814,1.429,1.9,1.4,3.577.013a6.267,6.267,0,0,1,7.051-1.083,76.325,76.325,0,0,1,6.808,3.742c1.57.939,3,2.106,4.547,3.089a7.4,7.4,0,0,0,7.629.63c.658-.319,1.5-.947,2-.019a2.781,2.781,0,0,1-.019,2.083c-1.949,4.908-7.161,8.432-13.5,8.515m8.387-5.55a.95.95,0,0,0-.555-1.624c-2.9-.313-5.068-1.82-7.272-3.276a75.733,75.733,0,0,0-7.195-4.415,11.158,11.158,0,0,0-4.4-.941c-1.543-.081-2.442,1.205-3.138,2.365-.714,1.191.121,2.2.9,3.053a34.452,34.452,0,0,0,3.394,3.4c3.256,2.681,6.886,4.575,11.261,4.317a10.452,10.452,0,0,0,7-2.877m-48.53-.943a.944.944,0,0,0-.289,1.55l.011.01a10.648,10.648,0,0,0,8.1,2.565c5.8-.531,10.192-3.6,13.632-8.048a3.111,3.111,0,0,0-.521-4.31,3.826,3.826,0,0,0-3.48-.751A40.941,40.941,0,0,0,21.276,77.5c-1.666.914-3.069,2.308-4.745,3.2-2.068,1.1-4.243,1.992-6.474,2.971" fill="#474654"/>
      <path id="Path_2147" data-name="Path 2147" d="M40.894,67.925c.024-1.655,1.342-1.609,2.254-1.674a7.728,7.728,0,0,1,7.4,3.566c-.842,0-1.414.18-1.681-.029a8.484,8.484,0,0,0-7.082-1.627c-.254.046-.549-.139-.892-.236" fill="#474654"/>
      <path id="Path_2148" data-name="Path 2148" d="M17.979,69.682c1.8-2.935,5.935-4.349,8.62-3.05.285.138.631.541.614.8s-.516.727-.706.683c-2.923-.676-5.369.47-7.767,1.89-.108.065-.387-.156-.761-.321" fill="#474654"/>
      <path id="Path_2149" data-name="Path 2149" d="M5.85,53.224c.881-.195,1.507-.365,2.144-.469,5.892-.96,11.452-2.834,16.215-6.5a21.488,21.488,0,0,0,8.757-16.4c.089-1.553.344-2.769,1.844-3.607a21.612,21.612,0,0,0,8.548-8.058,6.67,6.67,0,0,1,.625-.775,4.282,4.282,0,0,1,2.281,3.915c.031,4.958.2,9.92-.942,14.791-.876,3.74-2.066,7.339-5.068,10.048a2,2,0,0,1-2.639.353c-4.283-2.235-8.492-.482-9.82,4.214a17.287,17.287,0,0,0-.4,5.164c.043,1.391-.218,2.36-1.615,2.883-6.652,2.492-13.838,1.424-18.989-3.971a9.439,9.439,0,0,1-.941-1.59" fill="#f06237"/>
      <path id="Path_2150" data-name="Path 2150" d="M30.058,28.372c-.333,8.234-3.937,13.936-10.85,17.637A38.2,38.2,0,0,1,6.132,49.947c-2.11.288-2.541-.032-2.9-2.188a14.882,14.882,0,0,1,1.937-10.32,30.938,30.938,0,0,1,3.151-4.47c1.8-2.068,3.693-3.682,6.954-3.315a31.315,31.315,0,0,0,12.052-.817,27.542,27.542,0,0,1,2.73-.465" fill="#5dba5c"/>
      <path id="Path_2151" data-name="Path 2151" d="M49.994,23.263c1.059.83,1.966,1.5,2.823,2.221,2.964,2.508,5.929,5.016,8.851,7.572.679.6,1.144,1.426,1.785,2.071a2.5,2.5,0,0,1,.374,3.128C60.329,46.1,54.421,50.843,45.868,52.2c-1.128.178-2.267.32-3.406.385-.862.049-1.573-.386-1.575-1.293a2.8,2.8,0,0,1,.569-1.981c4.4-3.424,6.258-8.2,7.129-13.406.675-4.037.925-8.145,1.409-12.638" fill="#a43892"/>
      <path id="Path_2152" data-name="Path 2152" d="M35.214,5.647c.555.684,1.005,1.181,1.39,1.723,1.32,1.862,2.574,3.773,3.94,5.6a2.741,2.741,0,0,1,.162,3.542,19.918,19.918,0,0,1-7.758,7.258,27.3,27.3,0,0,1-10.333,2.763,34.61,34.61,0,0,1-6.028.107c3.359-3.2,6.941-6.212,10.015-9.668s5.62-7.344,8.612-11.326" fill="#a43892"/>
      <path id="Path_2153" data-name="Path 2153" d="M66.52,41.017a8.8,8.8,0,0,1,.885,5.006c-.755,8.035-6.422,13.075-13.91,14.053a18.811,18.811,0,0,1-10.88-2.031c-.567-.278-.892-1.047-1.329-1.589a7.911,7.911,0,0,1,1.9-.969c2.383-.492,4.855-.645,7.179-1.319,6.374-1.85,11.1-5.9,14.564-11.479.318-.512.654-1.013,1.012-1.5.069-.094.276-.088.583-.174" fill="#5dba5c"/>
      <path id="Path_2154" data-name="Path 2154" d="M39.069,54.449a6.7,6.7,0,0,1-1.812,4.992,4.083,4.083,0,0,1-6.827-.887,8.874,8.874,0,0,1-.028-8.523c1.672-3.028,4.89-3.364,7.084-.7a7.659,7.659,0,0,1,1.583,5.116" fill="#fff"/>
      <path id="Path_2155" data-name="Path 2155" d="M59.987,83.008a10.473,10.473,0,0,1-8.4,4.474c-4.375.259-8.006-1.635-11.261-4.317a34.342,34.342,0,0,1-3.4-3.4c-.778-.849-1.612-1.862-.9-3.053.7-1.16,1.6-2.447,3.137-2.366a11.167,11.167,0,0,1,4.4.942,75.987,75.987,0,0,1,7.195,4.415c2.671,1.765,5.286,3.6,9.226,3.3" fill="#f06237"/>
      <path id="Path_2156" data-name="Path 2156" d="M9.014,84.126c2.6-1.169,5.128-2.168,7.517-3.435,1.676-.888,3.079-2.282,4.745-3.2a40.8,40.8,0,0,1,6.237-2.816A4.091,4.091,0,0,1,32.3,77.194a2.32,2.32,0,0,1-.261,1.839c-3.516,4.833-8.06,8.2-14.161,8.755a10.652,10.652,0,0,1-8.1-2.566,4.829,4.829,0,0,1-.764-1.1" fill="#f06237"/>
      <path id="Path_2157" data-name="Path 2157" d="M34.561,55.333c.019.389.061,1.011.085,1.5-.668-.044-.62-.269-.608-.586a1.71,1.71,0,0,0-.181-.882,2.413,2.413,0,0,0-.6.037,2.739,2.739,0,0,1-.8-.047,1.53,1.53,0,0,1-1.06-2.525,7.592,7.592,0,0,1,1.082-1.158c.494-.455.815-.869,1.379-1.341a6.012,6.012,0,0,1,3.19,2.72c.731,1.419.174,2.2-1.5,2.225-.223,0-.447.014-.669.039-.066.008-.066.008-.318.022" fill="#474654"/>
      <path id="Path_2158" data-name="Path 2158" d="M33.919,56.829h.727l-.085-1.5-.7.028Z"/>
      <path id="Path_2159" data-name="Path 2159" d="M195.731,33.457h-4.362c-.08,1.041-.188,1.841-.193,2.642-.02,3.429,0,6.859-.011,10.289-.008,2.711-.127,2.822-2.849,2.715-.447-.018-.891-.123-1.749-.248V33.741l-4.316-.375a4.723,4.723,0,0,1-.28-.937c-.155-2.314,0-2.505,2.3-2.525,3.057-.025,6.114,0,9.171-.012.763,0,1.525-.065,2.287-.1Z" fill="#a43892"/>
      <path id="Path_2160" data-name="Path 2160" d="M109.312,60.162c-3.223-.529-6.119-1.342-9.031-1.408-5.133-.116-8.39,3.523-8.4,8.839s3.228,8.774,8.372,8.909c.153,0,.306,0,.459,0,3.759.023,4.884-1.5,3.913-5.189-.3-1.137-1.137-1.016-1.966-1.117-.878-.108-2.361-.1-2.5-.513a9.664,9.664,0,0,1-.233-3.79c.026-.319.879-.8,1.364-.816,2.677-.079,5.358-.026,8.037-.039,1.1-.006,1.458.582,1.455,1.588-.013,3.817.056,7.636-.056,11.449a2.8,2.8,0,0,1-1.185,1.972c-5.6,3.337-15.856,3.162-20.674-2.194-4.082-4.537-4.88-9.748-3.025-15.352,1.8-5.44,5.913-8.334,11.443-9.36a19.79,19.79,0,0,1,10.4.752c1.062.376,1.692.916,1.643,2.131-.059,1.439-.014,2.881-.014,4.135" fill="#5dba5c"/>
      <path id="Path_2161" data-name="Path 2161" d="M160.656,71.217l6.921,10.752c-2.548,0-4.714.1-6.856-.07-.573-.046-1.195-.869-1.589-1.469-1.55-2.356-3.039-4.753-4.506-7.163-.633-1.041-1.369-1.625-2.979-.88,0,2.165.006,4.5,0,6.842-.01,2.8-.015,2.8-2.777,2.811-1.119.006-2.239,0-3.522,0V53.6a3.529,3.529,0,0,1,1.067-.349c3.661.072,7.351-.074,10.975.339,6.116.7,9.4,5.492,7.961,11.428a11.987,11.987,0,0,1-2.2,3.9,17.681,17.681,0,0,1-2.493,2.3m-8.975-4.307a29.966,29.966,0,0,0,4.85-.555,4.073,4.073,0,0,0,2.162-1.8,4.642,4.642,0,0,0-.7-4.894c-.936-.922-4.5-1.548-5.628-.9a1.488,1.488,0,0,0-.649,1.056c-.06,2.189-.03,4.38-.03,7.094" fill="#5dba5c"/>
      <path id="Path_2162" data-name="Path 2162" d="M177.374,53.527v2.59c0,5.038-.032,10.076.012,15.114.037,4.338,3.856,6.733,7.793,4.823a4.888,4.888,0,0,0,2.1-2.232,8.454,8.454,0,0,0,.572-3.338c.06-4.35.025-8.7.025-13.053s.865-5.066,5.254-4.148a1.831,1.831,0,0,1,1.168,1.29c-.08,6.555.033,13.133-.517,19.654-.408,4.846-4.677,7.951-10.42,8.164-7.178.265-12.308-3.282-12.453-11.389-.093-5.19-.04-10.382-.021-15.572.008-2.1.115-2.179,2.211-2.223.994-.021,1.99,0,2.984.031a9.131,9.131,0,0,1,1.291.289" fill="#5dba5c"/>
      <path id="Path_2163" data-name="Path 2163" d="M116.329,53.708c.372-.245.429-.312.5-.324,5.54-.922,5.815-.691,5.818,4.821,0,4.348-.051,8.7.024,13.044.066,3.837,1.8,5.418,5.583,5.309,2.821-.081,4.177-1.2,4.7-4A16.674,16.674,0,0,0,133.2,69.6c.024-4.729-.006-9.459.019-14.188.011-2.074.126-2.2,2.227-2.2,4.877,0,4.189-.4,4.181,4.113-.009,5.028.079,10.073-.3,15.08-.554,7.362-5.514,10.079-11.832,10-7.063-.089-11.2-4.353-11.272-11.4-.05-5.111-.017-10.222-.008-15.333,0-.675.077-1.351.114-1.965" fill="#5dba5c"/>
      <path id="Path_2164" data-name="Path 2164" d="M171.855,29.735c5.483.034,9.2,4.014,9.148,9.8-.053,5.9-4.059,9.954-9.717,9.836-5.343-.112-9.1-4.265-9.058-10.018.039-5.8,3.9-9.65,9.627-9.615m3.922,12.018a7.81,7.81,0,0,0,.077-4.124,9.069,9.069,0,0,0-.6-1.776c-.813-1.678-2.423-2.21-4.286-1.977a4.093,4.093,0,0,0-3.363,2.769,8.326,8.326,0,0,0-.148,5.349,4.469,4.469,0,0,0,5.755,2.937,4.257,4.257,0,0,0,2.566-3.178" fill="#a43892"/>
      <path id="Path_2165" data-name="Path 2165" d="M129.262,30.052c.819-.088,1.415-.2,2.011-.207,2.133-.023,2.377.2,2.406,2.314.028,2.162.006,4.324.006,6.486,0,.026,0,.05,0,.076.013.167.02.4.042.6,1.317-2.021,3.051-4.547,4.354-6.577.986-1.536,2.128-3.276,3.008-3.649.952-.4,1.707.195,3.911,1.1-1.212,1.852-2.366,3.593-3.5,5.349-3.179,4.93-2.812,3.365.171,7.805,1.177,1.751,2.431,3.45,3.984,5.645a37.462,37.462,0,0,1-4.959-.068c-.607-.088-1.219-.844-1.634-1.433-1.676-2.381-3.273-4.817-4.9-7.232l-.479.147q0,2.538,0,5.078c0,3.863-.387,4.154-4.425,3.184Z" fill="#a43892"/>
      <path id="Path_2166" data-name="Path 2166" d="M94.26,48.94c.736-2.26,1.36-4.2,2-6.14,1.2-3.612,2.479-7.2,3.574-10.839a2.474,2.474,0,0,1,2.978-2.073,13.79,13.79,0,0,0,1.83.015,1.836,1.836,0,0,1,2.041,1.411c1.824,5.567,3.705,11.116,5.555,16.675a5.178,5.178,0,0,1,.008,1.1,14.624,14.624,0,0,1-3.482-.079,2.646,2.646,0,0,1-1.4-1.717,2.308,2.308,0,0,0-2.809-1.958,23.065,23.065,0,0,1-2.975.018c-1.074-.037-1.842.4-1.965,1.468-.244,2.132-1.58,2.517-3.383,2.3-.516-.062-1.037-.1-1.969-.177m9.412-14.187-.57-.091c-.6,2.222-1.209,4.445-1.857,6.828h4.248c-.648-2.4-1.235-4.568-1.821-6.737" fill="#a43892"/>
      <path id="Path_2167" data-name="Path 2167" d="M151.525,48.938h-4.353V30.1c3.327-.235,6.59-.66,9.753.553a5.736,5.736,0,0,1,3.846,5.474,5.749,5.749,0,0,1-3.259,5.841,10.367,10.367,0,0,1-3.946,1.023c-1.658.067-2.135.768-2.054,2.259.065,1.188.013,2.383.013,3.687m0-12.628c0,2.818.171,3.1,1.725,3.045a2.743,2.743,0,0,0,2.922-2.8,2.79,2.79,0,0,0-3.205-2.982c-1.707.068-1.442,1.7-1.442,2.734" fill="#a43892"/>
      <path id="Path_2168" data-name="Path 2168" d="M126.634,34.645c-3.336-.8-6.714-1.853-8.98,1.685a5.588,5.588,0,0,0,.152,6.675c2.379,3.112,5.588,2.474,9.088,1.211,0,1.03-.03,1.836.008,2.638a1.948,1.948,0,0,1-1.436,2.067,10.332,10.332,0,0,1-12.411-4.7,10.21,10.21,0,0,1,3.082-12.842,10.972,10.972,0,0,1,8.584-1.361c2.279.448,2.47,1.017,1.913,4.626" fill="#a43892"/>
      <path id="Path_2169" data-name="Path 2169" d="M85.477,45.091c3.365.328,3.752-.007,3.771-3.221s-.015-6.407.015-9.611c.02-2.161.266-2.373,2.36-2.358,1.981.015,2.185.186,2.191,2.26.013,3.89.042,7.781-.056,11.669-.083,3.3-2.128,5.23-5.368,5.274-3.141.042-3.689-.681-2.913-4.013" fill="#a43892"/>
    </g>
  </g>
</svg>
