<svg xmlns="http://www.w3.org/2000/svg" xmlns:xlink="http://www.w3.org/1999/xlink" width="190.065" height="24.56" viewBox="0 0 190.065 24.56">
  <defs>
    <clipPath id="clip-path">
      <rect id="Rectangle_1340" data-name="Rectangle 1340" width="190.065" height="24.56" transform="translate(0 0)" fill="none"/>
    </clipPath>
  </defs>
  <g id="Group_2783" data-name="Group 2783" transform="translate(0 0)">
    <g id="Group_2783-2" data-name="Group 2783" clip-path="url(#clip-path)">
      <path id="Path_2115" data-name="Path 2115" d="M55.388.045H61.43a.919.919,0,0,1,.118.137.346.346,0,0,1,.062.171c0,2.227,0,4.455,0,6.744h5.775a3.852,3.852,0,0,0,.566-2.277c-.062-1.562-.017-3.129-.017-4.733h4.742c0,2.95.035,5.893-.016,8.834-.022,1.235-1.618,2.7-3.014,2.987-.591.121-1.165.321-1.927.536.914,1.632,1.785,3.1,2.577,4.618.96,1.836,1.84,3.713,2.783,5.558.309.606.707,1.166,1.117,1.833-1.877.214-3.8.028-5.631.1-1.358-2.557-2.688-5.031-3.984-7.521-.506-.971-.893-2-1.417-2.964a24.27,24.27,0,0,0-1.516-2.138V24.5H55.37V19.98l1.442-.549V5.177l-1.424-.539Z"/>
      <path id="Path_2116" data-name="Path 2116" d="M108.464.045c3,0,6.021.04,9.046-.016a3.609,3.609,0,0,1,3.381,2.019A4.3,4.3,0,0,1,121.7,4.88a13.813,13.813,0,0,0-.014,1.816h-4.972c-.147-.572-.311-1.213-.477-1.863h-5.069c-.559.765-.559.765-.54,4.507l.585.585c1.944,0,3.914,0,5.885,0a5.283,5.283,0,0,1,2.968.94,4.89,4.89,0,0,1,1.585,3.48,44.57,44.57,0,0,1,0,6.115,4.209,4.209,0,0,1-2.481,3.7,2.462,2.462,0,0,0-.467.389c-2.995,0-6.02,0-9.046,0a3.906,3.906,0,0,1-3.794-2.817,10.5,10.5,0,0,1-.367-3.832h5.078c.02.36.045.8.076,1.365,1.652,1.044,3.553.332,5.425.574.956-1.476.2-3.091.577-4.773-1.262,0-2.425.036-3.585-.009-1.658-.064-3.314-.186-5.016-.286-.518-.553-.982-1.11-1.509-1.6a3.41,3.41,0,0,1-1.039-2.528c-.061-2.169-.082-4.345,0-6.513a4.012,4.012,0,0,1,2.5-3.7,2.389,2.389,0,0,0,.467-.389"/>
      <path id="Path_2117" data-name="Path 2117" d="M159.821,4.787l-.619.619V24.492h-6.6V19.847l1.334-.074c.056-.12.153-.23.153-.341q.011-7.6.008-15.2a4.159,4.159,0,0,1,4.219-4.19q3.946-.01,7.894,0a3.606,3.606,0,0,1,3.691,3.7q.014,6.908,0,13.815v1.8l1.914.859v3.8l-.475.475H165.18V5.182a4.768,4.768,0,0,0-1.214-.377c-1.38-.047-2.762-.018-4.145-.018"/>
      <path id="Path_2118" data-name="Path 2118" d="M179.307,9.925c2.481,0,4.655-.013,6.828,0a4.327,4.327,0,0,1,3.914,3.9q.028,3.458,0,6.915a4.328,4.328,0,0,1-3.825,3.793q-4.052.033-8.1,0a4.008,4.008,0,0,1-3.874-3.912c-.014-.907,0-1.815,0-2.76h4.739c-.218.917.388,1.416,1.118,1.971,1.486-.33,3.229.481,4.766-.451V15.063c-1.612,0-3.181.048-4.745-.017a18.21,18.21,0,0,1-3.192-.4,3.969,3.969,0,0,1-2.683-3.511c-.012-2.568.011-5.137-.011-7.705a2.517,2.517,0,0,1,.979-2.155A4.557,4.557,0,0,1,178.259,0c3.024.13,6.057.041,9.493.041.014.025.1.438.345.58a3.8,3.8,0,0,1,1.955,3.518c.007.843,0,1.687,0,2.573h-5.047c-.286-.583.267-1.5-.866-1.905h-4.523c-.968,1.121-.571,2.51-.612,3.813a5.392,5.392,0,0,0,.3,1.3"/>
      <path id="Path_2119" data-name="Path 2119" d="M17.35,5.18l-1.5-.569V.09h6.635V1.8q0,8.19,0,16.38c0,.575-.152,1.209.645,1.591h4.372l.891-1.34V.123h6.3v4.5l-1.541.563c0,5.289-.055,10.416.042,15.54A3.972,3.972,0,0,1,29.4,24.554c-2.763-.019-5.526.011-8.289-.012a4.359,4.359,0,0,1-3.75-3.861c-.018-4.473-.006-8.946-.006-13.42Z"/>
      <path id="Path_2120" data-name="Path 2120" d="M130.379,15.853v8.669c-2.189.055-4.385.009-6.65.03V19.894l1.45-.157V4.878l-1.457-.16V.045h1.445q6.013,0,12.028,0a3.843,3.843,0,0,1,3.873,2.932,7.018,7.018,0,0,1,.385,2.406q-.042,2.76-.005,5.521a4.8,4.8,0,0,1-5.04,4.954c-1.963-.031-3.927-.006-6.029-.006m.064-11.03v5.858h5.309c.563-.774.571-.774.548-3.914-.005-.684.252-1.463-.566-1.944Z"/>
      <path id="Path_2121" data-name="Path 2121" d="M37.11,3.153c.174-.343.3-.557.393-.783A3.713,3.713,0,0,1,41.161.057C43.729.013,46.3.122,48.866.019A3.418,3.418,0,0,1,52.525,2.37a4.168,4.168,0,0,0,.248.49.8.8,0,0,0,.141.145V6.717c-.748.016-1.511.037-2.274.045-.781.007-1.562,0-2.1,0L47.355,4.79H42.837l-.982.982q0,6.519,0,13.051l.992.975h4.505l1.167-1.928h4.4c0,.849,0,1.688,0,2.528a4.078,4.078,0,0,1-4.236,4.148q-3.656.01-7.311,0a4.194,4.194,0,0,1-4.258-4.159c-.006-5.8,0-11.591,0-17.234"/>
      <path id="Path_2122" data-name="Path 2122" d="M86.5,12.431V24.454H79.847V19.835h1.482V12.3a7.48,7.48,0,0,1-2.549-.375,3.874,3.874,0,0,1-2.938-3.878c-.005-2.624,0-5.247,0-7.937h4.686V6.793a6.108,6.108,0,0,0,1.308.35c1.507.039,3.015.015,4.66.015V.083h5.155c0,2.83.046,5.643-.02,8.453-.034,1.45-1.712,3.079-3.218,3.372-.6.117-1.182.321-1.906.523"/>
      <path id="Path_2123" data-name="Path 2123" d="M6.687.114V19.47l3.529.47V18.264h5.089v6.227c-.425.017-.927.053-1.428.054-2.765.006-5.53.011-8.3,0A3.891,3.891,0,0,1,1.9,21.4a16.686,16.686,0,0,1-.351-4.191c-.011-4.079,0-8.159,0-12.232L0,4.427V.114Z"/>
      <path id="Path_2124" data-name="Path 2124" d="M150.08,24.512h-6.591V19.9l1.45-.158V4.878l-1.457-.159V.139h6.6Z"/>
    </g>
  </g>
</svg>
