<svg id="Group_2795" data-name="Group 2795" xmlns="http://www.w3.org/2000/svg" xmlns:xlink="http://www.w3.org/1999/xlink" width="170.788" height="66.095" viewBox="0 0 170.788 66.095">
  <defs>
    <clipPath id="clip-path">
      <rect id="Rectangle_1344" data-name="Rectangle 1344" width="170.788" height="66.095" fill="none"/>
    </clipPath>
  </defs>
  <g id="Group_2794" data-name="Group 2794" clip-path="url(#clip-path)">
    <path id="Path_2142" data-name="Path 2142" d="M46.071,5.636a5.636,5.636,0,1,1-11.273,0A5.705,5.705,0,0,1,40.435,0a5.613,5.613,0,0,1,5.636,5.636M34.827,15.77a2.494,2.494,0,0,1,2.42-2.42h6.433a2.494,2.494,0,0,1,2.42,2.42V41.786H35.026c-.028,0-.2-26.016-.2-26.016m48.362,2.391a2.494,2.494,0,0,1,2.42-2.42H99.756a2.473,2.473,0,0,1,2.419,2.42v4.981a2.474,2.474,0,0,1-2.419,2.42H85.609a2.494,2.494,0,0,1-2.42-2.42Zm-3.046-2.875a15.6,15.6,0,0,0-31.2-.142V41.815H60.5V15.457a4.278,4.278,0,0,1,4.184-4.327,4.189,4.189,0,0,1,4.185,4.327V41.815H79.944v-.968c.028-.029.2-25.562.2-25.562m-68.287,26.5H.783V16.88c0-4.668,1.139-8.34,3.53-11.244A14.716,14.716,0,0,1,9.607,1.623,16.166,16.166,0,0,1,16.183.171a15.147,15.147,0,0,1,11.243,4.5,15.031,15.031,0,0,1,4.5,11.073,15.028,15.028,0,0,1-4.5,11.073,14.725,14.725,0,0,1-10.76,4.668,17.487,17.487,0,0,1-2.732-.171V19.1a4.7,4.7,0,0,0,2.419.8,4.136,4.136,0,0,0,2.9-1.281,4.412,4.412,0,0,0,1.281-3.046,4.374,4.374,0,0,0-4.327-4.326c-2.9,0-4.326,1.935-4.326,5.949C11.856,17.193,11.856,41.786,11.856,41.786Zm127.58,0h11.243V17.193c0-4.014,1.452-5.949,4.327-5.949a4.374,4.374,0,0,1,4.326,4.326,4.408,4.408,0,0,1-1.281,3.046,4.034,4.034,0,0,1-2.9,1.281,4.874,4.874,0,0,1-2.42-.8V31.34a17.492,17.492,0,0,0,2.733.171,14.622,14.622,0,0,0,10.76-4.668,15.033,15.033,0,0,0,4.5-11.073,15.031,15.031,0,0,0-4.5-11.073A14.956,14.956,0,0,0,155.006.171a16.166,16.166,0,0,0-6.576,1.452,14.717,14.717,0,0,0-5.295,4.013c-2.419,2.9-3.53,6.576-3.53,11.244ZM105.22,26.672V1.452l.171-.484h11.556V26.358a4.172,4.172,0,0,0,4.185,4.327,4.3,4.3,0,0,0,4.184-4.327V.968h11.073V26.5a15.59,15.59,0,0,1-31.169.171Z" transform="translate(-0.1 0)" fill="#e93f25"/>
    <path id="Path_2143" data-name="Path 2143" d="M0,53.3H170.788V63.437a9.463,9.463,0,0,1-9.45,9.451H9.45A9.482,9.482,0,0,1,0,63.437Z" transform="translate(0 -6.793)" fill="#5ecba7"/>
    <path id="Path_2144" data-name="Path 2144" d="M47.7,70.137a5.794,5.794,0,0,0,5.238-2.9l-1.822-1.167a3.774,3.774,0,0,1-3.387,1.907,4.439,4.439,0,0,1,0-8.852,3.825,3.825,0,0,1,3.359,1.821l1.851-1.223a5.908,5.908,0,0,0-5.209-2.762,6.39,6.39,0,0,0-6.49,6.6A6.168,6.168,0,0,0,47.7,70.137m21.719-.228h2.476L66.283,57.044H65.23L59.65,69.91h2.42l1.082-2.732H68.3c0-.029,1.111,2.732,1.111,2.732m-5.437-4.754,1.793-4.468,1.765,4.468Zm19.214,4.981c2.7,0,4.412-1.48,4.412-3.814,0-2.135-1.053-3.331-3.473-3.985-2.163-.6-2.733-1-2.733-1.907-.028-.8.655-1.309,1.708-1.309A1.822,1.822,0,0,1,85.1,60.488l2.078-.853c-.6-1.736-1.907-2.591-3.985-2.591-2.562,0-4.1,1.423-4.1,3.53,0,2.078,1.167,3.217,3.644,3.843,2.021.512,2.562,1.025,2.562,1.993,0,1.024-.769,1.651-1.964,1.651a2.272,2.272,0,0,1-2.476-1.851l-2.106.769C79.291,69.113,80.743,70.137,83.191,70.137Zm13.036-.228h2.42V57.27h-2.42Zm20.011-12.638v7.97l-7.088-8.112h-1.082V69.91h2.306v-8l7.087,8.112h1.053V57.271ZM133.6,70.137a6.367,6.367,0,0,0,6.49-6.575,6.252,6.252,0,0,0-6.49-6.576,6.377,6.377,0,0,0-6.461,6.576,6.246,6.246,0,0,0,6.461,6.575m0-2.163c-2.42,0-4.042-1.907-4.042-4.412a4.07,4.07,0,1,1,4.042,4.412" transform="translate(-5.255 -7.258)"/>
  </g>
</svg>
