<svg xmlns="http://www.w3.org/2000/svg" xmlns:xlink="http://www.w3.org/1999/xlink" width="195.731" height="54.589" viewBox="0 0 195.731 54.589">
  <defs>
    <clipPath id="clip-path">
      <rect id="Rectangle_1351" data-name="Rectangle 1351" width="195.731" height="54.589" transform="translate(0 0)" fill="none"/>
    </clipPath>
  </defs>
  <g id="Group_2798" data-name="Group 2798" transform="translate(0 0)">
    <g id="Group_2798-2" data-name="Group 2798" clip-path="url(#clip-path)">
      <path id="Path_2181" data-name="Path 2181" d="M54.589,27.3a26.067,26.067,0,0,1-2.047,10.372A27.338,27.338,0,0,1,2.047,37.8v-.136A26.05,26.05,0,0,1,0,27.3,26.046,26.046,0,0,1,2.047,16.923v-.138A26.926,26.926,0,0,1,16.786,2.048h.137A26.042,26.042,0,0,1,27.294,0,26.047,26.047,0,0,1,37.666,2.048H37.8A27.564,27.564,0,0,1,54.589,27.3M4.231,28.25H1.911a26.452,26.452,0,0,0,.955,5.732Zm-1.5-7.643,1.365,5.732H1.911a38.671,38.671,0,0,1,.818-5.732m47.629,5.732h2.32a27.917,27.917,0,0,0-.955-5.732Zm-6.551-5.868V13.51l6.824,4.232L48.72,25.384ZM36.029,41.9H41.9V36.028Zm-2.73,0H21.153l-8.6-8.6V21.153l8.6-8.6H33.3l8.6,8.6V33.3ZM23.064,43.67l4.23,4.232,4.094-4.232ZM12.692,36.028,18.56,41.9H12.692ZM6.687,27.3l4.094,4.229.137-8.461Zm6.005-14.6H18.56l-5.868,5.869Zm18.833-1.775L27.294,6.688,23.2,10.917ZM41.9,18.561l-5.868-5.869H41.9ZM48.038,27.3l-4.231-4.232v8.461ZM34.118,10.782,29.2,5.868l7.779-1.91,4.23,6.824Zm-20.607,0h6.96L25.52,5.868l-7.779-1.91Zm-2.73,9.689L5.868,25.384,3.958,17.6l6.823-4.229Zm0,20.744v-7.1L5.868,29.2l-1.91,7.779Zm9.69,2.592,4.913,4.914L17.6,50.631l-4.231-6.824ZM37.12,50.631l4.094-6.824h-7.1L29.2,48.857Zm6.687-16.513L48.72,29.2l1.911,7.779-6.824,4.231ZM45.991,9.963,44.353,11.6l5.186,3.139a28.832,28.832,0,0,0-3.548-4.776m-3,.273L39.85,5.186A29.141,29.141,0,0,1,44.49,8.6ZM28.25,1.91V4.23l5.731-1.5A36.31,36.31,0,0,0,28.25,1.91M26.339,4.23,20.607,2.866a20.736,20.736,0,0,1,5.732-.818ZM9.962,8.735l1.638,1.5,3-4.913a22.554,22.554,0,0,0-4.64,3.412m.273,2.865L5.186,14.739A29.085,29.085,0,0,1,8.6,10.1ZM8.6,44.627l1.637-1.638-5.049-3A22.618,22.618,0,0,0,8.6,44.627m3-.273L14.739,49.4A28.985,28.985,0,0,1,10.1,45.99Zm14.739,8.323V50.358l-5.732,1.5a36.213,36.213,0,0,0,5.732.817m1.911-2.319,5.868,1.364a27.637,27.637,0,0,1-5.868.955ZM39.986,49.4a22.532,22.532,0,0,0,4.64-3.413l-1.637-1.636Zm4.367-6.414L49.4,39.85a29.1,29.1,0,0,1-3.412,4.64ZM52.678,28.25h-2.32l1.5,5.732a36.092,36.092,0,0,0,.819-5.732" fill="#f09b38" fill-rule="evenodd"/>
      <path id="Path_2182" data-name="Path 2182" d="M84.49,23.077A6.286,6.286,0,0,1,78.1,29.439H74.131v6.609H70.965v-19.3H84.49Zm-3.166-3.351H74.131v6.732h3.935a3.208,3.208,0,0,0,3.227-3.381V19.726Z" fill="#020c43"/>
      <path id="Path_2183" data-name="Path 2183" d="M139.389,33.005v3.043H127.647v-19.3h11.589v3.043h-8.423V24.8h7.716V27.81h-7.716v5.226h8.576Z" fill="#020c43"/>
      <rect id="Rectangle_1347" data-name="Rectangle 1347" width="3.166" height="19.304" transform="translate(172.833 16.744)" fill="#020c43"/>
      <path id="Path_2184" data-name="Path 2184" d="M183.191,19.234V36.048h-3.166v-19.3Z" fill="#020c43"/>
      <rect id="Rectangle_1348" data-name="Rectangle 1348" width="3.165" height="19.304" transform="translate(192.566 16.744)" fill="#020c43"/>
      <rect id="Rectangle_1349" data-name="Rectangle 1349" width="13.587" height="3.012" transform="translate(124.972 24.8)" fill="#020c43"/>
      <path id="Path_2185" data-name="Path 2185" d="M192.566,30.393l-12.542-9.836V16.376l12.542,9.837Z" fill="#020c43"/>
      <path id="Path_2186" data-name="Path 2186" d="M88.7,26.585V16.718h3.166V26.4c0,2.274,1.291,3.873,4.15,3.873,2.828,0,4.149-1.6,4.149-3.873V16.749h3.167v9.867c0,4.18-3.105,6.762-7.316,6.762-4.242-.031-7.316-2.612-7.316-6.793" fill="#020c43"/>
      <path id="Path_2187" data-name="Path 2187" d="M107.79,16.744h7.746a6.192,6.192,0,0,1,6.209,6.209,6.044,6.044,0,0,1-3.842,5.6l2.029,3.473a2.116,2.116,0,0,0,1.844,1.045h3.2v2.982h-3.289a5.019,5.019,0,0,1-4.334-2.49l-2.644-4.549h-3.75v7.039H107.79Zm3.2,9.437h4.549a3.233,3.233,0,0,0,0-6.455h-4.549Z" fill="#020c43"/>
      <rect id="Rectangle_1350" data-name="Rectangle 1350" width="14.632" height="2.982" transform="translate(88.701 36.048)" fill="#020c43"/>
      <path id="Path_2188" data-name="Path 2188" d="M151.04,16.867h-3.228l5.072,19.058h3.073l2.921-10.912,3.073,10.912h2.92l4.919-19.058h-3.074l-3.381,12.142-2.921-10.3h-3.073l-3.073,10.3Z" fill="#020c43"/>
    </g>
  </g>
</svg>
